<svg width="21" height="21" viewBox="0 0 21 21" fill="none" xmlns="http://www.w3.org/2000/svg">
<path d="M15.7029 5.29102C16.7681 5.48256 17.6417 6.05678 18.3246 7.01367C18.9255 7.86146 19.3352 8.92787 19.5534 10.2129C19.745 11.3888 19.7306 12.5643 19.5124 13.7402C19.1847 15.6815 18.5293 17.3086 17.5461 18.6211C16.3714 20.2072 14.8969 21 13.1218 21C12.6846 21 12.2071 20.8634 11.6879 20.5898C11.3327 20.3712 10.9369 20.2617 10.4997 20.2617C10.0624 20.2617 9.66703 20.3712 9.31143 20.5898C8.79217 20.8634 8.31475 21 7.87752 21C6.10236 21 4.62785 20.2072 3.45316 18.6211C2.47002 17.3086 1.81459 15.6815 1.48688 13.7402C1.26867 12.5643 1.25432 11.3888 1.44586 10.2129C1.66406 8.92787 2.07381 7.86146 2.67469 7.01367C3.3576 6.05678 4.23123 5.48256 5.29641 5.29102C5.95184 5.1815 6.85295 5.27748 8.00016 5.57812C8.9833 5.8517 9.81633 6.17982 10.4992 6.5625C11.1821 6.17982 12.0152 5.8517 12.9983 5.57812C14.1459 5.27748 15.0475 5.1815 15.7029 5.29102ZM13.4495 3.60938C13.0672 3.96498 12.5615 4.22461 11.9336 4.38867C11.4963 4.52525 11.0189 4.59375 10.4997 4.59375L9.88524 4.55273C9.83068 4.17006 9.83068 3.73242 9.88524 3.24023C9.99475 2.25586 10.3085 1.50404 10.8274 0.984375C11.2096 0.62877 11.7154 0.369141 12.3433 0.205078C12.7805 0.0684961 13.258 0 13.7772 0L14.3916 0.0410156L14.4326 0.65625C14.4326 1.17592 14.3641 1.65416 14.228 2.0918C14.0643 2.72057 13.8051 3.2267 13.4495 3.60938Z" fill="url(#paint0_linear_55560_1121)"/>
<defs>
<linearGradient id="paint0_linear_55560_1121" x1="1.33588" y1="9.43778" x2="19.6637" y2="9.43778" gradientUnits="userSpaceOnUse">
<stop stop-color="#3858D6"/>
<stop offset="1" stop-color="#2646C4"/>
</linearGradient>
</defs>
</svg>
