<svg width="276" height="67" viewBox="0 0 276 67" fill="none" xmlns="http://www.w3.org/2000/svg">
<path d="M8.75181 53.5166L13.3222 41.264L17.6009 53.6138H8.75181V53.5166ZM22.074 65.9636H26.2554L15.3643 36.3047H11.2801L0 65.9636H4.18142L7.48766 56.8228H18.7678L22.074 65.9636ZM41.8142 59.6429C41.8142 62.0739 39.8694 63.3381 36.4659 63.3381C33.7431 63.3381 31.9927 62.5601 30.9231 60.8098L26.9361 61.4905C28.492 64.6995 31.701 66.1581 36.2714 66.1581C42.4949 66.1581 45.7039 62.7546 45.7039 59.0594C45.7039 54.3918 41.328 53.1276 36.3687 52.0579C33.9376 51.5717 31.1176 50.6966 31.1176 48.5572C31.1176 47.0013 32.5762 45.251 35.5907 45.251C38.6052 45.251 40.4528 47.2931 40.7446 48.1683L44.2453 46.7096C42.5922 43.5979 39.3832 42.431 36.0769 42.431C30.8258 42.431 27.4224 44.9593 27.4224 49.0434C27.4224 53.7111 31.4093 54.5863 35.299 55.4614C38.6052 56.3366 41.8142 57.1146 41.8142 59.6429ZM54.0668 36.3047L50.1771 37.9578V43.4034H46.5791V46.5151H50.1771V61.0043C50.0798 63.9215 50.0798 66.0609 54.553 66.0609C56.0116 66.0609 57.5675 65.7691 58.2482 65.6719V62.6574C57.4703 62.8519 56.4978 63.1436 55.8171 63.1436C54.164 63.1436 54.164 61.9767 54.164 59.3511V46.5151H58.2482V43.4034H54.164V36.3047H54.0668ZM61.5544 43.4034V65.9636H65.3469V55.5587C65.3469 53.6138 65.2496 51.3773 66.3193 49.7241C67.5835 47.682 69.3338 47.0013 73.1263 46.9041V43.0144C71.5704 43.1117 67.5835 43.1117 65.4441 47.3903V43.4034H61.5544V43.4034ZM95.3948 36.3047V39.9999H112.315L95.492 62.1712V66.0609H117.177V62.4629H99.9652L116.788 40.0971V36.4019H95.3948V36.3047ZM140.904 43.4034V65.9636H144.697V53.1276C144.697 51.4745 144.697 49.7241 146.35 48.071C147.517 46.9041 148.975 46.3207 150.628 46.3207C152.671 46.3207 154.81 47.2931 155.491 49.4324C155.685 50.2103 155.685 50.891 155.685 53.1276V65.8664H159.478V52.6414C159.478 50.6966 159.478 49.3352 159.089 48.071C158.019 44.3758 154.518 42.9172 151.698 42.9172C150.337 42.9172 146.739 43.2089 144.697 46.9041V43.5006H140.904V43.4034ZM199.639 60.518C198.861 62.0739 197.402 63.4353 194.388 63.4353C191.859 63.4353 187.581 61.8794 187.581 54.3918C187.581 52.3497 187.97 45.3482 194.193 45.3482C197.305 45.3482 198.763 47.0986 199.444 48.5572L202.945 47.0986C200.806 43.5006 196.819 42.6254 193.999 42.6254C186.803 42.6254 183.302 48.3627 183.302 54.7807C183.302 60.3236 186.316 66.4498 194.29 66.4498C198.861 66.4498 201.486 64.2133 202.848 61.9767L199.639 60.518ZM122.623 52.3497H134.583C134.292 46.4179 130.888 45.4455 128.554 45.4455C125.345 45.4455 123.109 47.7793 122.623 52.3497ZM137.695 61.6849C136.431 63.9215 133.903 66.3526 129.041 66.3526C122.428 66.3526 118.538 61.8794 118.538 54.2945C118.538 45.8344 124.081 42.6254 128.846 42.6254C133.028 42.6254 136.917 44.9593 138.279 50.5993C138.668 52.5442 138.668 54.1973 138.668 55.1697H122.525C122.428 58.9622 123.984 63.727 129.332 63.6298C131.472 63.6298 133.028 62.5601 134 61.1015L137.695 61.6849ZM165.701 52.3497H177.662C177.37 46.4179 173.967 45.4455 171.633 45.4455C168.327 45.4455 166.09 47.7793 165.701 52.3497ZM180.676 61.6849C179.412 63.9215 176.884 66.3526 172.022 66.3526C165.409 66.3526 161.52 61.8794 161.52 54.2945C161.52 45.8344 167.062 42.6254 171.827 42.6254C176.009 42.6254 179.898 44.9593 181.26 50.5993C181.649 52.5442 181.649 54.1973 181.649 55.1697H165.409C165.312 58.9622 166.868 63.727 172.216 63.6298C174.356 63.6298 175.911 62.5601 176.884 61.1015L180.676 61.6849ZM223.755 65.9636H219.768C219.768 65.9636 219.379 64.4077 219.282 62.6574C218.115 63.8243 215.975 66.2553 211.697 66.2553C207.321 66.2553 204.112 63.6298 204.112 59.8373C204.112 58.6704 204.403 57.4063 205.084 56.4339C206.348 54.489 208.779 53.0304 215.489 52.4469L219.087 52.1552V51.5717C219.087 49.2379 219.087 45.3482 214.03 45.3482C210.919 45.3482 209.752 46.9041 209.46 48.2655L205.959 46.8069C206.057 46.7096 206.057 46.5151 206.154 46.4179C207.515 43.9868 210.141 42.431 213.933 42.431C215.975 42.431 218.698 42.9172 220.448 44.3758C222.977 46.3207 222.88 50.0159 222.88 50.0159L223.074 61.5877C223.074 61.6849 223.269 64.9912 223.755 65.9636ZM218.504 59.7401C219.087 58.4759 219.087 57.9897 219.087 54.6835C217.628 54.878 215.586 55.1697 213.155 55.7532C208.974 56.6283 208.293 58.2815 208.293 59.8373C208.293 61.6849 209.752 63.1436 212.572 63.1436C215.197 63.1436 217.434 62.0739 218.504 59.7401ZM92.7692 65.9636H88.8795C88.8795 65.9636 88.4906 64.4077 88.3933 62.6574C87.2264 63.8243 85.0871 66.2553 80.8084 66.2553C76.4325 66.2553 73.1263 63.6298 73.1263 59.8373C73.1263 58.6704 73.418 57.4063 74.0987 56.4339C75.3628 54.489 77.7939 53.0304 84.5036 52.4469L88.1016 52.1552V51.5717C88.1016 49.2379 88.1016 45.3482 83.045 45.3482C79.836 45.3482 78.7663 46.9041 78.4746 48.2655L74.9739 46.8069C75.0711 46.7096 75.0711 46.5151 75.1684 46.4179C76.5298 43.9868 79.1553 42.431 82.9478 42.431C84.9898 42.431 87.7126 42.9172 89.463 44.3758C91.9913 46.3207 91.8941 50.0159 91.8941 50.0159L91.9913 61.5877C92.0885 61.6849 92.283 64.9912 92.7692 65.9636ZM87.6154 59.7401C88.1988 58.4759 88.1988 57.9897 88.1988 54.6835C86.7402 54.878 84.6981 55.1697 82.2671 55.7532C78.0856 56.6283 77.4049 58.2815 77.4049 59.8373C77.4049 61.6849 78.8636 63.1436 81.6836 63.1436C84.2119 63.1436 86.4485 62.0739 87.6154 59.7401Z" fill="#DDE2FA"/>
<path d="M248.357 47.0013C247.774 47.3903 247.19 47.7793 246.607 48.1682C239.8 44.3758 225.213 37.0826 223.949 36.4991C222.588 35.8184 220.254 34.846 220.546 32.6094C220.935 29.4977 226.478 22.5935 228.811 19.6762C241.453 4.31192 247.093 -0.45296 250.788 0.0332519C254.775 0.519464 257.012 4.70089 257.303 23.9549C255.067 23.2742 252.636 22.5935 250.01 21.9128C249.816 19.0928 249.232 14.9113 249.038 13.4527C248.843 11.7996 248.454 11.2161 247.871 11.1189C247.093 11.0216 245.245 12.772 243.592 14.5224C242.814 15.3003 240.675 17.4396 238.341 19.8707C236.396 19.7735 235.035 20.1624 234.354 21.1348C233.771 21.9128 233.673 22.9825 233.965 24.3438C232.701 25.608 231.631 26.6777 230.853 27.4556C228.228 30.0811 225.408 32.2205 225.311 33.2901C225.213 34.1653 226.478 35.0405 228.422 36.2074C232.896 38.6385 244.273 44.862 248.357 47.0013ZM266.055 27.7473C261.582 26.1915 250.594 22.1073 239.022 20.5514C235.035 20.0652 233.479 21.4266 235.035 25.219C236.688 29.0115 240.869 35.235 245.245 39.9999C249.621 44.6675 254.386 45.9317 255.942 38.7357C256.039 38.444 256.039 38.2495 256.136 37.9578C256.525 36.1102 256.817 34.2626 256.914 32.7067C254.97 31.8315 252.733 30.8591 250.594 29.9839C250.691 31.637 250.885 34.5543 250.983 36.6936C250.983 36.9854 250.983 37.2771 250.983 37.4716C251.08 41.0695 249.913 41.0695 247.871 39.6109C245.537 37.9578 238.244 28.3308 237.369 24.0521C237.369 23.7604 237.466 23.7604 237.563 23.8576C237.66 23.8576 237.66 23.8576 237.758 23.9549C239.411 24.6356 244.856 26.7749 250.399 29.1087C252.636 30.0811 254.872 30.9563 256.817 31.9288C258.762 32.8039 260.512 33.6791 261.874 34.3598C264.305 35.624 265.18 36.4991 264.208 37.5688C259.248 42.6254 241.745 49.8213 235.716 58.7676C235.716 58.7676 235.716 58.7676 235.618 58.8649C235.521 58.9621 235.521 59.0594 235.424 59.1566C235.424 59.1566 235.424 59.2539 235.327 59.2539C235.035 59.8373 234.646 60.7125 234.451 61.8794C234.16 63.8242 235.229 65.5746 238.049 66.3526C238.73 66.547 239.508 66.7415 240.383 66.8388C240.578 66.8388 240.675 66.8388 240.869 66.8388C246.218 67.1305 260.221 64.0187 264.402 62.1711C268.778 60.2263 267.514 58.2814 266.25 57.309C265.277 56.5311 260.415 53.8083 258.081 52.5441C257.401 52.9331 256.914 53.2248 256.331 53.711C260.318 56.1421 261.971 57.4063 262.943 58.087C263.332 58.3787 263.138 58.6704 262.554 58.7676C262.457 58.7676 262.263 58.7676 262.165 58.7676C258.373 59.0594 251.08 59.5456 247.676 59.7401C247.19 59.7401 246.607 59.8373 246.315 59.8373C247.19 59.0594 248.065 58.3787 248.552 57.9897C255.845 52.8359 268 45.6399 271.598 42.5282C274.321 40.0971 281.517 33.0957 266.055 27.7473Z" fill="#E7EBFC"/>
</svg>
