<svg width="21" height="19" viewBox="0 0 21 19" fill="none" xmlns="http://www.w3.org/2000/svg">
<path d="M20.3599 8.90747C20.3599 13.8269 15.8019 17.8149 10.18 17.8149C9.17171 17.8163 8.16763 17.6854 7.19342 17.4256C6.45028 17.8022 4.74387 18.525 1.87311 18.9958C1.61862 19.0365 1.4252 18.7719 1.52572 18.5352C1.97619 17.4714 2.38339 16.0538 2.50554 14.761C0.946737 13.1958 0 11.1471 0 8.90747C0 3.988 4.55808 0 10.18 0C15.8019 0 20.3599 3.988 20.3599 8.90747ZM6.36248 8.90747C6.36248 8.56999 6.22841 8.24632 5.98977 8.00768C5.75114 7.76904 5.42747 7.63498 5.08998 7.63498C4.7525 7.63498 4.42883 7.76904 4.19019 8.00768C3.95155 8.24632 3.81749 8.56999 3.81749 8.90747C3.81749 9.24496 3.95155 9.56862 4.19019 9.80726C4.42883 10.0459 4.7525 10.18 5.08998 10.18C5.42747 10.18 5.75114 10.0459 5.98977 9.80726C6.22841 9.56862 6.36248 9.24496 6.36248 8.90747V8.90747ZM11.4525 8.90747C11.4525 8.56999 11.3184 8.24632 11.0798 8.00768C10.8411 7.76904 10.5175 7.63498 10.18 7.63498C9.84248 7.63498 9.51882 7.76904 9.28018 8.00768C9.04154 8.24632 8.90747 8.56999 8.90747 8.90747C8.90747 9.24496 9.04154 9.56862 9.28018 9.80726C9.51882 10.0459 9.84248 10.18 10.18 10.18C10.5175 10.18 10.8411 10.0459 11.0798 9.80726C11.3184 9.56862 11.4525 9.24496 11.4525 8.90747V8.90747ZM15.27 10.18C15.6074 10.18 15.9311 10.0459 16.1697 9.80726C16.4084 9.56862 16.5424 9.24496 16.5424 8.90747C16.5424 8.56999 16.4084 8.24632 16.1697 8.00768C15.9311 7.76904 15.6074 7.63498 15.27 7.63498C14.9325 7.63498 14.6088 7.76904 14.3702 8.00768C14.1315 8.24632 13.9975 8.56999 13.9975 8.90747C13.9975 9.24496 14.1315 9.56862 14.3702 9.80726C14.6088 10.0459 14.9325 10.18 15.27 10.18V10.18Z" fill="url(#paint0_linear_55552_1151)"/>
<defs>
<linearGradient id="paint0_linear_55552_1151" x1="0.0264419" y1="8.53894" x2="20.3339" y2="8.53895" gradientUnits="userSpaceOnUse">
<stop stop-color="#3858D6"/>
<stop offset="1" stop-color="#2646C4"/>
</linearGradient>
</defs>
</svg>
