<svg width="20" height="20" viewBox="0 0 20 20" fill="none" xmlns="http://www.w3.org/2000/svg">
<path d="M9.48803 19.754C9.78203 19.911 10.151 19.91 10.445 19.753C18.457 15.449 19.026 7.03998 19.019 4.64898C19.0183 4.45681 18.9615 4.26904 18.8556 4.10865C18.7498 3.94826 18.5994 3.82223 18.423 3.74598L10.373 0.179985C10.2449 0.123514 10.1064 0.094433 9.96642 0.0946053C9.82642 0.0947775 9.688 0.124199 9.56003 0.180985L1.56603 3.74698C1.39222 3.82327 1.24402 3.94791 1.13906 4.10606C1.0341 4.26421 0.976812 4.4492 0.974028 4.63898C0.940028 7.01798 1.41903 15.445 9.48803 19.754ZM6.67403 8.29298L8.96703 10.586L13.26 6.29298L14.674 7.70698L8.96703 13.414L5.26003 9.70698L6.67403 8.29298V8.29298Z" fill="black"/>
</svg>
