<svg width="25" height="25" viewBox="0 0 25 25" fill="none" xmlns="http://www.w3.org/2000/svg">
<path d="M12.3994 0.293945C5.70996 0.293945 0.290039 5.71387 0.290039 12.4033C0.290039 19.0928 5.70996 24.5127 12.3994 24.5127C19.0889 24.5127 24.5088 19.0928 24.5088 12.4033C24.5088 5.71387 19.0889 0.293945 12.3994 0.293945ZM15.1875 17.3887L10.8809 14.2588C10.7295 14.1465 10.6416 13.9707 10.6416 13.7852V5.56738C10.6416 5.24512 10.9053 4.98145 11.2275 4.98145H13.5713C13.8936 4.98145 14.1572 5.24512 14.1572 5.56738V12.291L17.2578 14.5469C17.5215 14.7373 17.5752 15.1035 17.3848 15.3672L16.0078 17.2617C15.8174 17.5205 15.4512 17.5791 15.1875 17.3887Z" fill="black"/>
</svg>
