<svg width="211" height="48" viewBox="0 0 211 48" fill="none" xmlns="http://www.w3.org/2000/svg">
<g clip-path="url(#clip0_55548_1160)">
<path d="M96.6736 7.39721V14.4165L94.8242 12.6932C92.3023 10.3815 90.621 9.58287 87.6367 9.33068C82.5088 8.95239 78.0114 11.3482 75.3214 15.8877C74.2706 17.695 74.1865 18.2414 74.1865 22.0663C74.1865 25.8912 74.2706 26.4377 75.3214 28.245C79.4825 35.2643 88.7296 37.0717 94.3618 31.9018C95.3286 31.0191 96.2533 30.2626 96.4214 30.2626C96.5475 30.2626 96.6736 31.2293 96.6736 32.4062V34.5078L98.0606 34.3817L99.4056 34.2556L99.5317 17.3167L99.6158 0.419923H98.1447H96.6736V7.39721ZM91.0413 12.9875C96.2112 15.3412 98.2708 22.5707 95.1604 27.5725C91.7138 33.1207 83.8118 33.7092 79.4405 28.7494C77.5911 26.6478 76.9186 24.8404 76.9186 22.1504C76.9186 18.1994 79.2303 14.5006 82.5929 12.9875C84.8206 11.9787 88.7716 11.9787 91.0413 12.9875Z" fill="#D8DCEB"/>
<path d="M8.02818 10.0873C7.01941 10.5497 5.5483 11.6005 4.79172 12.4411L3.36264 13.9122V11.8106V9.66702H1.89153H0.42041V22.0664V34.4658H1.89153H3.36264V27.1943C3.36264 18.7879 3.82499 16.4762 5.96862 14.4166C8.40647 12.0628 11.9792 11.4744 14.5011 13.0296C16.8128 14.4587 16.981 15.2993 17.1491 25.3029L17.3172 34.4658H18.7043H20.0913L20.2595 26.5638C20.4276 17.611 20.932 15.7616 23.7481 13.66C25.6816 12.1469 29.0441 11.7686 31.0196 12.7774C33.6676 14.1224 33.7937 14.7529 34.0459 25.0086L34.2561 34.2557H35.7272H37.1983L37.1563 25.0927C37.0722 16.0979 37.0722 15.9298 35.9794 13.66C34.6344 10.97 32.7429 9.62499 29.8848 9.33076C26.6483 9.03654 24.5467 9.87718 21.9407 12.4832C20.6377 13.7861 19.5029 14.6268 19.4188 14.3746C18.9565 12.9035 17.1911 11.012 15.5519 10.1714C13.2401 8.99451 10.5081 8.99451 8.02818 10.0873Z" fill="#D8DCEB"/>
<path d="M51.3627 10.0447C48.1263 11.1796 45.9827 13.1971 44.2173 16.8119C41.2751 22.9065 44.2173 31.0186 50.354 33.7507C56.5327 36.4407 63.6781 34.129 67.1247 28.2866C68.6378 25.7226 68.9741 20.8889 67.8813 17.6105C66.7884 14.416 63.1737 10.8433 60.1054 9.91863C57.1631 9.03596 54.1368 9.07799 51.3627 10.0447ZM61.0301 13.7015C61.9968 14.374 63.3839 15.7611 64.0984 16.7278C65.1492 18.2409 65.3594 19.0395 65.4854 21.5615C65.6115 24.2515 65.4854 24.8399 64.4346 26.8995C60.2735 34.8435 48.1683 33.1623 46.2769 24.3776C45.5203 20.8469 46.6131 17.3583 49.2611 14.8364C51.4048 12.7768 53.1701 12.1463 56.4066 12.3144C58.7603 12.3985 59.5169 12.6507 61.0301 13.7015Z" fill="#D8DCEB"/>
<path d="M114.747 9.62434C111.679 10.5911 108.695 13.113 107.013 16.1813C105.795 18.4931 105.71 25.5124 106.929 27.7401C109.283 32.0694 112.478 34.3391 116.975 34.7594C122.019 35.2218 126.474 33.3303 128.996 29.7156L130.299 27.8241L129.206 27.1096C128.155 26.4371 128.113 26.4371 125.97 28.7068C123.49 31.2708 121.556 32.1114 118.11 32.1114C113.234 32.1114 108.863 27.8662 108.863 23.1586C108.863 22.2759 108.905 22.2759 120.043 22.2759H131.266L131.014 20.3845C130.341 15.5088 126.853 11.1375 122.607 9.87653C120.38 9.20402 116.513 9.07793 114.747 9.62434ZM123.028 13.2391C125.213 14.3319 127.063 16.5596 127.609 18.6612L127.861 19.754H118.53H109.199L109.451 18.5771C109.914 16.6437 111.931 14.2058 113.865 13.155C116.471 11.768 120.127 11.81 123.028 13.2391Z" fill="#D8DCEB"/>
<path d="M142.993 9.9192C142.236 10.2975 141.185 11.1802 140.597 11.8106C140.051 12.4831 139.504 13.0296 139.378 13.0296C139.252 13.0296 139.126 12.273 139.126 11.3483C139.126 9.70904 139.084 9.66701 137.655 9.66701H136.184V22.0664V34.4658H137.613H139.042L139.21 26.3537C139.378 18.7039 139.42 18.1575 140.471 15.8877C141.69 13.2397 143.161 12.1889 145.557 12.1889C146.65 12.1889 147.196 11.9367 147.742 11.0961C148.121 10.5077 148.331 9.9192 148.205 9.79311C147.616 9.20466 144.296 9.28873 142.993 9.9192Z" fill="#D8DCEB"/>
<path d="M161.276 9.83514C159.553 10.4656 158.922 10.8859 156.905 12.7774L155.518 14.0383V11.8527V9.66701H154.047H152.576V22.0664V34.4658H154.005H155.434L155.602 26.3537C155.728 18.4096 155.728 18.2415 156.905 16.308C158.25 13.9543 160.814 12.315 163.546 11.9367C166.11 11.6425 168.8 13.0296 169.977 15.3413C170.733 16.7704 170.86 18.0314 170.986 25.7232L171.154 34.4658H172.625H174.096L173.928 25.513C173.76 16.9806 173.718 16.5182 172.667 14.2065C171.196 11.012 169.136 9.62498 165.522 9.41482C163.882 9.28873 162.285 9.45685 161.276 9.83514Z" fill="#D8DCEB"/>
<path d="M188.891 9.66682C185.151 10.8437 181.284 14.8367 180.275 18.6196C179.098 22.9909 180.737 28.7073 183.974 31.5654C186.748 34.0033 188.597 34.6758 192.506 34.6758C196.415 34.6758 198.222 34.0033 201.123 31.4814L202.594 30.1784V32.322V34.4656H204.065H205.536V22.0662V9.66682H204.065H202.594V12.0626V14.4164L201.081 12.8612C198.853 10.5495 196.541 9.54072 193.137 9.41463C191.539 9.33056 189.606 9.45666 188.891 9.66682ZM196.919 12.9873C200.618 14.6686 202.594 17.863 202.594 22.1083C202.594 27.026 200.114 30.4306 195.574 31.7756C192.674 32.6162 190.068 32.1959 187.546 30.5146C179.266 24.9664 182.881 12.2308 192.716 12.2308C194.271 12.1887 195.869 12.483 196.919 12.9873Z" fill="#D8DCEB"/>
<path d="M155.5 44H144" stroke="#D6DAEA" stroke-width="2.5" stroke-miterlimit="16" stroke-linecap="square"/>
<path d="M29.5 44H18" stroke="#F0F1F7" stroke-width="2.5" stroke-miterlimit="16" stroke-linecap="square"/>
<path d="M11.5 44H0" stroke="#F2F4FA" stroke-width="2.5" stroke-miterlimit="16" stroke-linecap="square"/>
<path d="M137.5 44H126" stroke="#D6DBEB" stroke-width="2.5" stroke-miterlimit="16" stroke-linecap="square"/>
<path d="M119.5 44H108" stroke="#E0E4F0" stroke-width="2.5" stroke-miterlimit="16" stroke-linecap="square"/>
<path d="M101.5 44H90" stroke="#E4E7F1" stroke-width="2.5" stroke-miterlimit="16" stroke-linecap="square"/>
<path d="M209.5 44H198" stroke="#D5DAEA" stroke-width="2.5" stroke-miterlimit="16" stroke-linecap="square"/>
<path d="M83.5 44H72" stroke="#E7E9F3" stroke-width="2.5" stroke-miterlimit="16" stroke-linecap="square"/>
<path d="M191.5 44H180" stroke="#D6DAEA" stroke-width="2.5" stroke-miterlimit="16" stroke-linecap="square"/>
<path d="M65.5 44H54" stroke="#ECEEF6" stroke-width="2.5" stroke-miterlimit="16" stroke-linecap="square"/>
<path d="M173.5 44H162" stroke="#D6DAEA" stroke-width="2.5" stroke-miterlimit="16" stroke-linecap="square"/>
<path d="M47.5 44H36" stroke="#EDEFF6" stroke-width="2.5" stroke-miterlimit="16" stroke-linecap="square"/>
</g>
<defs>
<clipPath id="clip0_55548_1160">
<rect width="211" height="47.496" fill="white"/>
</clipPath>
</defs>
</svg>
