<svg width="181" height="71" viewBox="0 0 181 71" fill="none" xmlns="http://www.w3.org/2000/svg">
<path d="M151.165 48.5082C147.817 48.5383 146.037 46.487 146.037 42.867C146.037 42.6257 146.037 42.3843 146.067 42.143H159.25C159.521 41.1777 159.702 40.1218 159.702 39.1867C159.702 34.7522 156.867 31.3735 151.075 31.3735C145.162 31.3735 139.883 36.9845 139.883 42.867C139.883 48.5082 143.714 51.9472 150.109 51.9472C152.945 51.9472 155.72 51.012 157.681 49.5942L156.474 46.668C154.906 47.7842 153.066 48.478 151.165 48.5082ZM151.135 34.541C153.096 34.541 154.091 35.7477 154.091 38.4325C154.091 38.704 154.061 38.9453 154.061 39.2168H146.55C147.334 36.4113 149.084 34.541 151.135 34.541ZM99.007 30.1065C99.007 25.5212 95.2663 22.1727 89.595 22.1727H78.6143L70.3486 51.4343H77.2568L80.3036 40.6347H86.3068C93.1848 40.6347 99.007 36.3812 99.007 30.1065ZM83.6521 37.2258H81.269L84.5571 25.6117H87.061C90.1983 25.6117 91.9781 27.663 91.9781 30.378C91.9781 34.6918 88.4185 37.2258 83.6521 37.2258ZM90.2586 70.7712H96.8953V70.8013L107.092 35.1142H114.06L109.475 51.4042H116.172L121.662 31.8863H107.966L108.751 29.1713C109.143 27.7535 109.776 25.31 110.712 22.5347C111.677 19.6688 113.427 17.8588 115.78 17.8588C116.926 17.8588 117.62 18.3415 117.62 19.2163C117.59 20.1515 116.805 20.6643 116.805 22.1425C116.805 23.862 118.314 25.1893 120.274 25.1893C122.718 25.1893 124.679 23.319 124.679 20.9962C124.679 17.4365 121.511 15.0835 116.654 15.0835C109.565 15.0835 104.889 19.4275 101.963 29.5635L90.2586 70.7712ZM141.994 31.8863H124.226L123.351 35.1142H131.949L118.615 51.4042H137.439L138.314 48.1763H128.6L141.994 31.8863ZM177.169 31.5847C174.755 31.5847 172.221 33.093 170.2 36.17L171.377 31.9165H164.68L159.189 51.4343H165.886L168.36 42.6558C169.356 39.066 171.799 35.5667 173.428 35.5667C175.178 35.5667 174.514 38.704 177.531 38.704C179.703 38.704 181 36.7733 181 35.0237C181 32.9422 179.311 31.5847 177.169 31.5847Z" fill="#E7E9F4"/>
<path d="M5.46013 33.7567C11.0711 31.2227 20.815 30.4686 33.2436 31.9166L36.7731 19.5181C18.7938 17.3159 5.70147 19.7896 3.4993 27.6329L3.4088 27.9346C3.0468 29.8049 3.80097 31.7657 5.46013 33.7567Z" fill="#ECEDF7"/>
<path d="M61.0273 30.0762C55.4163 32.6102 45.6725 33.3643 33.2439 31.9163L29.7144 44.3148C47.6635 46.517 60.7558 44.0433 62.958 36.2L63.0485 35.8983C63.4105 34.028 62.6865 32.0672 61.0273 30.0762Z" fill="#E7E9F4"/>
<path d="M15.4753 0L11.9458 12.3985C32.972 13.8465 54.33 22.0518 60.9968 30.0762C63.561 28.8997 65.2805 27.3612 65.9743 25.4607L63.018 35.8682C62.9878 35.9587 62.9878 36.0793 62.9576 36.1698L65.3408 27.7835C66.1251 25.159 66.4871 23.7713 66.4871 22.6853C66.4871 13.1225 40.3628 1.448 15.4753 0Z" fill="#ECEDF7"/>
<path d="M61.0273 30.0761C62.6865 32.0671 63.4407 34.0279 63.0485 35.8982L66.0048 25.4907C65.311 27.3611 63.5915 28.8996 61.0273 30.0761Z" fill="#ECEDF7"/>
<path d="M5.46017 33.7568C2.896 34.9333 1.1765 36.4718 0.482666 38.3422C0.150833 39.579 0 40.3935 0 41.1175C0 50.7105 26.1243 62.3548 51.0118 63.8028L54.5112 51.4043C33.485 49.9563 12.127 41.751 5.46017 33.7568Z" fill="#E7E9F4"/>
<path d="M5.46041 33.7563C3.80124 31.7653 3.04708 29.8045 3.43924 27.9644L0.513077 38.2512C0.513077 38.2814 0.48291 38.3115 0.48291 38.3417C1.17674 36.4412 2.86608 34.9027 5.46041 33.7563Z" fill="#E7E9F4"/>
</svg>
