<svg width="20" height="20" viewBox="0 0 20 20" fill="none" xmlns="http://www.w3.org/2000/svg">
<path d="M9.49206 19.7707C9.78606 19.9277 10.1551 19.9277 10.4491 19.7697C18.4611 15.4657 19.0301 7.05668 19.0231 4.66568C19.0223 4.47351 18.9655 4.28574 18.8597 4.12535C18.7538 3.96496 18.6035 3.83893 18.4271 3.76268L10.3761 0.197685C10.2479 0.141214 10.1095 0.112133 9.96945 0.112305C9.82945 0.112478 9.69103 0.141899 9.56306 0.198685L1.57006 3.76468C1.39626 3.8407 1.24801 3.96513 1.14304 4.12313C1.03806 4.28113 0.980785 4.46601 0.978057 4.65568C0.944057 7.03469 1.42306 15.4617 9.49206 19.7707ZM6.29306 7.70668L7.70706 6.29269L10.0001 8.58569L12.2931 6.29269L13.7071 7.70668L11.4141 9.99969L13.7071 12.2927L12.2931 13.7067L10.0001 11.4137L7.70706 13.7067L6.29306 12.2927L8.58606 9.99969L6.29306 7.70668Z" fill="url(#paint0_linear_55552_1137)"/>
<defs>
<linearGradient id="paint0_linear_55552_1137" x1="1" y1="9" x2="19" y2="9" gradientUnits="userSpaceOnUse">
<stop stop-color="#3858D6"/>
<stop offset="1" stop-color="#2646C4"/>
</linearGradient>
</defs>
</svg>
