<svg width="201" height="34" viewBox="0 0 201 34" fill="none" xmlns="http://www.w3.org/2000/svg">
<path d="M38.6336 32.773V28.9954V4.59402V0.816406H30.4658V4.59402V28.9954V32.773H38.6336Z" fill="#E5E4F5"/>
<path d="M110 16.8461C110 22.053 108.571 26.137 105.814 29.0978C102.955 32.0586 99.0755 33.488 94.0727 33.488C89.07 33.488 85.0881 32.0586 82.3315 29.0978C79.4728 26.137 78.1455 22.053 78.1455 16.8461C78.1455 11.537 79.5749 7.45308 82.3315 4.49225C85.0881 1.53142 89.07 0.102051 94.1748 0.102051C99.2797 0.102051 103.159 1.53142 106.018 4.49225C108.673 7.35098 110 11.537 110 16.8461ZM102.241 16.8461C102.241 13.4768 101.526 10.8223 100.097 8.88245C98.6671 6.94259 96.6252 5.92162 94.0727 5.92162C91.4182 5.92162 89.4783 6.94259 88.049 8.88245C86.6196 10.8223 85.9049 13.4768 85.9049 16.8461C85.9049 20.2153 86.6196 22.7677 88.049 24.8097C89.4783 26.7495 91.5203 27.7705 94.0727 27.7705C96.6252 27.7705 98.6671 26.7495 100.097 24.8097C101.526 22.7677 102.241 20.1132 102.241 16.8461Z" fill="#E5E4F5"/>
<path d="M127.663 23.7884L135.218 0.816406H143.386L132.462 32.773H122.966L112.042 0.816406H120.21L127.663 23.7884Z" fill="#F0F0F9"/>
<path d="M1.1639 32.2629V25.9328C4.73732 27.0559 7.90235 27.5664 10.659 27.5664C14.5387 27.5664 16.3765 26.5454 16.3765 24.5034C16.3765 23.7888 16.0702 23.0741 15.5597 22.5636C14.9471 22.0531 13.5177 21.2363 11.1695 20.3174C6.98347 18.5818 4.22683 17.0503 2.89956 15.8251C1.266 14.1916 0.449219 12.1496 0.449219 9.69928C0.449219 6.53425 1.67439 4.08391 4.12473 2.45034C6.47298 0.816781 9.63801 0 13.5177 0C15.6618 0 19.1331 0.306293 23.0128 1.12307V6.73844C19.9499 5.92166 16.989 5.41118 14.4366 5.41118C10.8632 5.41118 9.02542 6.43215 9.02542 8.37201C9.02542 9.08669 9.43381 9.69928 10.1485 10.2098C10.7611 10.6182 12.3946 11.4349 15.1513 12.6601C19.031 14.3958 21.6855 15.9272 23.0128 17.1524C24.5443 18.6839 25.361 20.6237 25.361 23.0741C25.361 26.5454 23.8296 29.1999 20.8687 31.0377C18.4184 32.5692 15.2534 33.2838 11.3737 33.2838C7.80025 33.3859 4.53312 33.0796 1.1639 32.2629V32.2629Z" fill="#E5E4F5"/>
<path d="M44.7593 32.773V0.816406H54.969L66.3019 22.1548V0.816406H72.6319V32.773H63.0348L51.0893 11.0262V32.773H44.7593Z" fill="#E5E4F5"/>
<path d="M156.251 9.801L148.798 32.773H140.63L151.554 0.816406H161.049L171.974 32.773H163.806L156.251 9.801Z" fill="#F0F0F9"/>
<path d="M199.846 26.5453C197.396 27.26 193.618 27.6684 192.189 27.6684C188.82 27.6684 186.165 26.6474 184.225 24.7075C182.183 22.7677 181.264 20.1131 181.264 16.846C181.264 13.5789 182.285 11.0265 184.225 8.9845C186.165 6.94255 188.717 5.92157 191.985 5.92157C193.312 5.92157 196.375 6.12577 199.948 7.35094V1.53137C199.131 1.22508 198.008 0.918785 196.783 0.71459C195.252 0.408297 193.516 0.204102 191.576 0.204102C186.063 0.204102 181.673 1.73557 178.406 4.7985C175.138 7.86143 173.505 11.9453 173.505 17.1523C173.505 22.2572 175.138 26.3411 178.406 29.1998C181.673 32.1607 186.063 33.59 191.78 33.59C193.516 33.59 195.15 33.4879 196.681 33.1816C197.906 32.9774 199.029 32.7733 200.152 32.467V26.5453H199.846Z" fill="#F0F0F9"/>
</svg>
