<svg width="26" height="25" viewBox="0 0 26 25" fill="none" xmlns="http://www.w3.org/2000/svg">
<path d="M10.0891 8.5354L12.8088 11.26C12.9602 11.4114 12.9602 11.6604 12.8088 11.8118L12.2571 12.3635C12.1057 12.5149 11.8567 12.5149 11.7053 12.3635L8.9856 9.63892L6.77368 11.8508L9.49829 14.5754C9.64966 14.7268 9.64966 14.9758 9.49829 15.1272L8.94653 15.679C8.79517 15.8303 8.54614 15.8303 8.39478 15.679L5.67017 12.9495L4.3811 14.2385C3.53638 15.0833 3.1311 16.2454 3.25806 17.4319L3.60474 20.5374L0.362549 23.7795C0.211182 23.9309 0.211182 24.1799 0.362549 24.3313L0.914307 24.8831C1.06567 25.0344 1.3147 25.0344 1.46606 24.8831L4.70337 21.6458L7.80884 21.9924C8.97583 22.1194 10.1477 21.7288 11.0022 20.8694L19.884 11.9875L13.2581 5.36157L10.0891 8.5354V8.5354ZM25.1379 3.97974L21.2708 0.112549C21.1194 -0.0388184 20.8704 -0.0388184 20.719 0.112549L20.1672 0.664307C20.0159 0.815674 20.0159 1.0647 20.1672 1.21606L21.5491 2.5979L19.3372 4.80981L16.5735 2.04614L15.7434 1.21606C15.592 1.0647 15.343 1.0647 15.1917 1.21606L13.5364 2.87134C13.385 3.02271 13.385 3.27173 13.5364 3.4231L14.3665 4.25317L20.9924 10.8889L21.8225 11.719C21.9739 11.8704 22.2229 11.8704 22.3743 11.719L24.0295 10.0588C24.1809 9.90747 24.1809 9.65845 24.0295 9.50708L20.4407 5.91821L22.6526 3.7063L24.0344 5.08813C24.1858 5.2395 24.4348 5.2395 24.5862 5.08813L25.1379 4.53638C25.2893 4.38013 25.2893 4.13599 25.1379 3.97974V3.97974Z" fill="black"/>
</svg>
