<svg width="20" height="16" viewBox="0 0 20 16" fill="none" xmlns="http://www.w3.org/2000/svg">
<path d="M14 12.25C14 13.112 13.6576 13.9386 13.0481 14.5481C12.4386 15.1576 11.612 15.5 10.75 15.5H3.25C2.38805 15.5 1.5614 15.1576 0.951903 14.5481C0.34241 13.9386 0 13.112 0 12.25V3.75C0 2.88805 0.34241 2.0614 0.951903 1.4519C1.5614 0.84241 2.38805 0.5 3.25 0.5H10.75C11.612 0.5 12.4386 0.84241 13.0481 1.4519C13.6576 2.0614 14 2.88805 14 3.75V12.25ZM19.762 1.893C19.9157 2.0739 20.0001 2.3036 20 2.541V13.459C20.0001 13.65 19.9455 13.837 19.8426 13.9979C19.7398 14.1588 19.593 14.2869 19.4197 14.367C19.2464 14.4472 19.0537 14.476 18.8645 14.4501C18.6753 14.4243 18.4974 14.3447 18.352 14.221L15 11.37V4.628L18.352 1.779C18.4521 1.69387 18.5679 1.62929 18.6929 1.58894C18.8179 1.5486 18.9497 1.53328 19.0806 1.54387C19.2116 1.55445 19.3391 1.59074 19.456 1.65064C19.573 1.71055 19.6769 1.7929 19.762 1.893V1.893Z" fill="url(#paint0_linear_55552_1153)"/>
<defs>
<linearGradient id="paint0_linear_55552_1153" x1="0.0259745" y1="7.24127" x2="19.9744" y2="7.24127" gradientUnits="userSpaceOnUse">
<stop stop-color="#3858D6"/>
<stop offset="1" stop-color="#2646C4"/>
</linearGradient>
</defs>
</svg>
