<svg width="23" height="23" viewBox="0 0 23 23" fill="none" xmlns="http://www.w3.org/2000/svg">
<path d="M7.42002 4.22L5.28002 2.08C5.97002 1.88 6.75002 2.12 7.19002 2.75C7.50002 3.19 7.56002 3.73 7.42002 4.22V4.22ZM21.25 11.25C20.66 11.25 20.13 11.55 19.82 12H19C19 10.43 18.5 9 17.6 7.81L18.94 6.47C19.5 6.57 20.07 6.41 20.5 6C21.17 5.31 21.17 4.2 20.5 3.5C19.81 2.83 18.7 2.83 18 3.5C17.59 3.93 17.43 4.5 17.53 5.06L16.19 6.4C15.27 5.71 14.19 5.25 13 5.08V3.68C13.3057 3.46766 13.5356 3.16317 13.656 2.81098C13.7765 2.45878 13.7812 2.07731 13.6695 1.72223C13.5579 1.36715 13.3357 1.05705 13.0353 0.837176C12.735 0.617303 12.3722 0.499166 12 0.500004C11.6278 0.499166 11.2651 0.617303 10.9647 0.837176C10.6644 1.05705 10.4422 1.36715 10.3305 1.72223C10.2188 2.07731 10.2236 2.45878 10.344 2.81098C10.4645 3.16317 10.6943 3.46766 11 3.68V5.08C10.26 5.19 9.57002 5.41 8.92002 5.72L18.28 15.08C18.45 14.73 18.6 14.38 18.71 14H19.82C20.0324 14.3057 20.3369 14.5356 20.6891 14.656C21.0412 14.7764 21.4227 14.7812 21.7778 14.6695C22.1329 14.5579 22.443 14.3357 22.6628 14.0353C22.8827 13.735 23.0009 13.3722 23 13C23 12.03 22.22 11.25 21.25 11.25ZM22.11 21.46L20.84 22.73L20.1 22C19.7 21.96 19.31 21.8 19 21.5C18.7 21.19 18.54 20.8 18.5 20.4L15.9 17.79C15.57 18 15.22 18.23 14.85 18.39C15.21 18.68 15.46 19.12 15.5 19.62C15.57 20.58 14.84 21.43 13.88 21.5C12.92 21.57 12.08 20.85 12 19.88C12 19.56 12.05 19.26 12.18 19H12C11.07 19 10.19 18.82 9.38002 18.5L8.31002 20.47C8.56002 20.96 8.57002 21.56 8.29002 22.08C8.18102 22.2822 8.03326 22.461 7.85517 22.6062C7.67708 22.7513 7.47214 22.8599 7.25207 22.9258C7.03199 22.9918 6.80109 23.0137 6.57253 22.9904C6.34398 22.9671 6.12226 22.899 5.92002 22.79C5.71778 22.681 5.539 22.5332 5.39387 22.3552C5.24874 22.1771 5.14011 21.9721 5.07418 21.7521C5.00825 21.532 4.98631 21.3011 5.00962 21.0725C5.03293 20.844 5.10102 20.6222 5.21002 20.42C5.50002 19.89 6.00002 19.58 6.55002 19.5L7.65002 17.5C6.95002 16.92 6.35002 16.22 5.90002 15.43L4.39002 15.84C4.21002 16.36 3.78002 16.78 3.21002 16.94C2.98809 17.0004 2.75643 17.0165 2.52827 16.9874C2.30011 16.9583 2.07992 16.8845 1.88028 16.7703C1.68063 16.6561 1.50544 16.5036 1.3647 16.3217C1.22396 16.1398 1.12043 15.9319 1.06002 15.71C0.999612 15.4881 0.983509 15.2564 1.01263 15.0283C1.04175 14.8001 1.11552 14.5799 1.22974 14.3803C1.34396 14.1806 1.49638 14.0054 1.6783 13.8647C1.86022 13.7239 2.06809 13.6204 2.29002 13.56C2.87002 13.41 3.45002 13.56 3.87002 13.91L5.18002 13.56C5.06364 13.0481 5.00328 12.525 5.00002 12C4.64002 11.93 4.29002 11.77 4.00002 11.5C3.33002 10.8 3.33002 9.7 4.00002 9C4.50002 8.5 5.25002 8.38 5.87002 8.62C5.97002 8.44 6.09002 8.27 6.20002 8.09L1.11002 3L2.39002 1.73L22.11 21.46Z" fill="url(#paint0_linear_55552_1131)"/>
<defs>
<linearGradient id="paint0_linear_55552_1131" x1="1.02711" y1="10.6117" x2="22.9718" y2="10.6117" gradientUnits="userSpaceOnUse">
<stop stop-color="#3858D6"/>
<stop offset="1" stop-color="#2646C4"/>
</linearGradient>
</defs>
</svg>
